<?xml version="1.0" encoding="utf-8"?>
<!-- Generator: Adobe Illustrator 23.0.3, SVG Export Plug-In . SVG Version: 6.00 Build 0)  -->
<svg version="1.1" xmlns="http://www.w3.org/2000/svg" xmlns:xlink="http://www.w3.org/1999/xlink" x="0px" y="0px"
	 viewBox="0 0 218 48" enable-background="new 0 0 218 48" xml:space="preserve">
<g id="back" display="none">
	<rect x="-0.2577866" display="inline" width="218.5" height="48"/>
</g>
<g id="Layer_1">
	<g>
		<g>
			<g>
				<path fill="#1976D2" d="M48.7718811,21.7450981c0,0.4960785-0.4058838,0.9019604-0.9019585,0.9019604H28.026783
					c-0.4960785,0-0.9019604-0.4058819-0.9019604-0.9019604V1.9019608C27.1248226,1.4058824,27.5307045,1,28.026783,1h19.8431396
					c0.4960747,0,0.9019585,0.4058824,0.9019585,0.9019608V21.7450981z"/>
			</g>
			<g>
				<path fill="#1976D2" d="M24.4189396,21.7450981c0,0.4960785-0.4058819,0.9019604-0.9019604,0.9019604H3.6738424
					c-0.4960785,0-0.9019608-0.4058819-0.9019608-0.9019604V1.9019608C2.7718816,1.4058824,3.1777639,1,3.6738424,1h19.8431358
					c0.4960785,0,0.9019604,0.4058824,0.9019604,0.9019608V21.7450981z"/>
			</g>
			<g>
				<path fill="#1976D2" d="M48.7718811,46.0980377C48.7718811,46.5941162,48.3659973,47,47.8699226,47H28.026783
					c-0.4960785,0-0.9019604-0.4058838-0.9019604-0.9019623V26.2549019c0-0.4960785,0.4058819-0.9019604,0.9019604-0.9019604
					h19.8431396c0.4960747,0,0.9019585,0.4058819,0.9019585,0.9019604V46.0980377z"/>
			</g>
			<g>
				<path fill="#D32F2F" d="M23.7811584,35.5386887c0.3507805,0.3507805,0.3507862,0.9247894,0.0000134,1.2755775
					l-9.5475407,9.5479393c-0.3507729,0.3507881-0.924777,0.3507996-1.2755651,0.0000267l-9.5483885-9.5479927
					c-0.3507879-0.3507729-0.3507938-0.9247704-0.0000134-1.2755508l9.5479641-9.5479641
					c0.3507805-0.3507805,0.9247847-0.3507805,1.2755651,0L23.7811584,35.5386887z"/>
			</g>
		</g>
		<g>
			<g>
				<path fill="#FFFFFF" d="M56.8895302,21.3478298V1.7213882h10.7081184l0.2598572,1.7026314h-8.6879539v7.0425997h6.7827415
					l0.2598572,1.7030821h-7.0425987v7.3596849h9.2648964l0.2888947,1.8184433H56.8895302z"/>
				<path fill="#FFFFFF" d="M71.9846115,21.3478298V1.7213882h10.7081223l0.2598572,1.7026314h-8.6880035v7.0425997h6.7827911
					l0.2598495,1.7030821h-7.0426407v7.3596849h9.2649384l0.2889023,1.8184433H71.9846115z"/>
				<path fill="#FFFFFF" d="M89.0712204,1.7213882V14.132143c0,1.6740389,0.4712296,3.0304985,1.4141388,4.0698719
					c0.9425049,1.0389252,2.1937027,1.5585899,3.7522888,1.5585899c1.5775757,0,2.8283234-0.5196648,3.7518921-1.5585899
					c0.9239655-1.0393734,1.385498-2.395833,1.385498-4.0698719V1.7213882h2.3090668v12.6706104
					c0,1.3855467-0.3029709,2.6362953-0.9089966,3.7522926c-0.6064377,1.1159954-1.4722748,1.9867039-2.5979614,2.6120777
					c-1.1252441,0.6249695-2.4385452,0.9376335-3.9394989,0.9376335c-1.5009079,0-2.814209-0.3170853-3.9398956-0.9521542
					c-1.1256943-0.6350708-1.9915314-1.5009079-2.5975571-2.5975571c-0.6059875-1.0970554-0.9094467-2.3473988-0.9094467-3.7522926
					V1.7213882H89.0712204z"/>
				<path fill="#FFFFFF" d="M112.3627777,20.3952236l0.5483017-1.7893543
					c0.6156769,0.3078384,1.3612823,0.5822144,2.2368164,0.8226776c0.8755341,0.2409134,1.7365494,0.3606949,2.5834885,0.3606949
					c1.5009079,0,2.6596146-0.2933178,3.4779129-0.8804054c0.8174057-0.5865898,1.226532-1.3515873,1.226532-2.2945423
					c0-0.6733589-0.1924744-1.2648191-0.5773926-1.7748337c-0.3849106-0.5095625-0.9380798-0.9715462-1.6594696-1.3855467
					c-0.7213898-0.4135494-1.7079086-0.8896036-2.9582062-1.4286604c-1.7898483-0.7694178-3.1031494-1.6062117-3.9399414-2.51124
					c-0.837204-0.90417-1.2555771-2.0104704-1.2555771-3.3189445c0-0.9239688,0.254982-1.7607632,0.7649536-2.5111942
					c0.5095596-0.7504766,1.2410965-1.3419373,2.1932526-1.7748785c0.9526062-0.4333471,2.0540771-0.6495922,3.3048706-0.6495922
					c0.9239731,0,1.8228226,0.1154059,2.6988068,0.3461726c0.8755341,0.2312176,1.6497726,0.5196648,2.3236313,0.8658371
					l-0.7795181,1.7607627c-0.7121429-0.3267803-1.3613358-0.57739-1.9484177-0.7504764
					c-0.5870438-0.1730862-1.3036041-0.2598097-2.1500473-0.2598097c-1.2701416,0-2.2853012,0.2598097-3.0450211,0.7795198
					c-0.7601318,0.5196643-1.140213,1.2410526-1.140213,2.1646156c0,0.6927509,0.1876068,1.2842116,0.5628204,1.7752843
					c0.3752594,0.4906216,0.9094467,0.9376335,1.6022415,1.3419371c0.6923065,0.4038534,1.7122879,0.9142723,3.0590897,1.5295448
					c1.2124634,0.5584497,2.1888351,1.0970554,2.9296188,1.6163139c0.7407303,0.5196648,1.3036041,1.111577,1.6885147,1.7752848
					s0.5773926,1.4572973,0.5773926,2.3813124c0,1.0005894-0.2743759,1.8858185-0.8226776,2.6552372
					c-0.5483475,0.7698231-1.3472137,1.3758049-2.3954315,1.8184414c-1.0490265,0.4421864-2.2852554,0.6637096-3.7091293,0.6637096
					c-0.8469009,0-1.8281403-0.134798-2.9436874-0.4043045C113.6998444,21.0496864,112.8824387,20.741848,112.3627777,20.3952236z"
					/>
				<path fill="#FFFFFF" d="M139.3057404,18.1874485c-0.567688,1.1067524-1.3811188,1.9725895-2.4389954,2.5975571
					c-1.0583038,0.6249237-2.2901154,0.9380856-3.6946106,0.9380856c-1.346756,0-2.5208893-0.3131618-3.5210724-0.9380856
					c-1.0005798-0.6249676-1.7655869-1.5009079-2.2945404-2.6266003c-0.5293579-1.1252403-0.7935867-2.4099483-0.7935867-3.8531761
					c0.0189362-1.4238348,0.3029633-2.6886997,0.8513107-3.7954512c0.5483017-1.1062994,1.3418884-1.9721365,2.3812714-2.5975566
					c1.0389252-0.6249232,2.2513885-0.9380393,3.6364746-0.9380393c2.0972443,0,3.7421875,0.6689844,4.9356689,2.0060511
					c1.1926575,1.3375177,1.7893982,3.1414394,1.7893982,5.4117651
					C140.1570587,15.8162842,139.8729858,17.0811481,139.3057404,18.1874485z M136.5783081,18.2737675
					c0.8081512-1.0098362,1.2217102-2.2940931,1.2410431-3.8531322c0-1.6546469-0.3853607-2.9868879-1.1547241-3.9971743
					c-0.7698669-1.0102863-1.8572388-1.5154295-3.2612762-1.5154295c-1.385498,0-2.4821472,0.5051432-3.2902985,1.5154295
					c-0.8081665,1.0102863-1.2221069,2.2945433-1.2410583,3.8531313c0,1.6357059,0.3844604,2.9631214,1.1543274,3.9831047
					c0.7693787,1.0199814,1.8567352,1.5295448,3.261673,1.5295448
					C134.6730957,19.7892418,135.7701416,19.2840977,136.5783081,18.2737675z"/>
				<path fill="#FFFFFF" d="M141.5712433,9.3118839l-0.0286407-1.731719h2.1355286v-2.193253
					c0-1.3084297,0.3510437-2.3526747,1.0534973-3.1317432c0.7024384-0.7795197,1.6598816-1.168851,2.8718872-1.168851
					c0.3849487,0,0.7694092,0.0479844,1.1547852,0.143998c0.3844604,0.0969157,0.7019958,0.2122765,0.9521484,0.3466235
					l-0.5192566,1.8470803c-0.1545563-0.0766215-0.3562775-0.144449-0.6064301-0.2021294
					c-0.2501678-0.0572746-0.4716797-0.0863628-0.6637115-0.0863628c-1.3088837,0-1.9624481,0.798506-1.9624481,2.3954275v2.0492101
					h2.5684662l0.7504883,1.731719h-3.3189545v12.0359459h-2.2804718V9.3118839H141.5712433z"/>
				<path fill="#FFFFFF" d="M157.0415344,7.5801649l0.7504425,1.731719h-3.2903137v8.081974
					c0,0.750433,0.1633911,1.3375187,0.4906158,1.760313c0.3267822,0.4236507,0.8271027,0.6350708,1.5009613,0.6350708
					c0.3650665,0,0.7887573-0.096014,1.2701416-0.2884922l0.5192108,1.7894001
					c-0.692749,0.3267803-1.404892,0.4906216-2.1355286,0.4906216c-1.2124634,0-2.1698914-0.35145-2.871933-1.0534458
					c-0.7028961-0.7020416-1.0534363-1.7075024-1.0534363-3.0163822V9.3118839h-2.0206299l-0.0286255-1.731719h2.0492554V4.00141
					l2.2799683-0.6350708v4.2138257H157.0415344z"/>
				<path fill="#FFFFFF" d="M171.6745911,21.3478298l-3.1748962-10.6504431l-2.9727783,10.6504431h-2.22229L159.234787,7.7823391
					l2.0783081-0.8658824l3.117218,11.1697025l2.9441376-10.7367611h2.308609l3.117218,10.7367611l2.9441833-10.7367611h2.3090668
					l-4.1275482,13.9984322H171.6745911z"/>
				<path fill="#FFFFFF" d="M181.3438416,9.9183178l-0.6641693-1.73172
					c0.5003204-0.3465781,1.2362366-0.6350703,2.2082367-0.8658371c0.9715424-0.2312174,1.774826-0.3465786,2.4098969-0.3465786
					c1.0578613,0,2.0012207,0.2021298,2.8287811,0.6059828c0.8270874,0.4043036,1.4718628,0.9627523,1.9338379,1.6739941
					c0.4615326,0.7121429,0.6923065,1.520751,0.6923065,2.4244709v9.6691999h-1.7025909L188.7612,19.933691
					c-0.5192108,0.4809246-1.1639862,0.8997498-1.9333954,1.255619c-0.7698212,0.3554173-1.5202942,0.5337811-2.2513885,0.5337811
					c-1.5585785,0-2.7468262-0.4043045-3.564682-1.2124615c-0.8178101-0.808157-1.226532-1.8563251-1.226532-3.1458588
					c0-1.3463116,0.4615784-2.3953829,1.3855438-3.1458588c0.9235229-0.750432,2.1452332-1.1256924,3.6655273-1.1256924h3.6078491
					v-0.77952c0-1.0389233-0.2453003-1.8567762-0.7363586-2.4530621c-0.4906311-0.5963316-1.2653198-0.8949261-2.3231812-0.8949261
					c-0.8275146,0-1.5348358,0.0818977-2.12146,0.2452888C182.6760712,9.3748407,182.0365906,9.6104784,181.3438416,9.9183178z
					 M181.8921356,17.3647709c0,0.6738091,0.2210693,1.2604446,0.6637115,1.7607632
					c0.4425964,0.5007687,1.0970612,0.7504749,1.9628906,0.7504749c0.750473,0,1.4669952-0.1924782,2.1501007-0.5773888
					c0.6826477-0.3849125,1.2842102-0.884779,1.8039093-1.5009079v-3.1749477h-3.6941528
					c-0.9050751,0-1.6118927,0.2646809-2.12146,0.7940865C182.1466675,15.9462118,181.8921356,16.5953979,181.8921356,17.3647709z"
					/>
				<path fill="#FFFFFF" d="M196.525238,21.3478298h-2.2800293V7.3493981h1.3564606l0.7213898,2.2513843
					c0.6350708-0.5386515,1.3952484-1.0486193,2.2804718-1.5299959c0.8847809-0.4804749,1.6638489-0.7213883,2.3376617-0.7213883
					l0.5483398,1.8184428c-0.7698669,0-1.6260071,0.2550297-2.5684662,0.7649984
					c-0.9433594,0.5100136-1.7418671,1.1014748-2.3958282,1.7748785V21.3478298z"/>
				<path fill="#FFFFFF" d="M215.2281189,14.7095337h-10.1598206c0.0576782,1.57798,0.4857941,2.823904,1.284256,3.7377701
					s2.0249786,1.3709812,3.6800385,1.3709812c0.750473,0,1.4384003-0.0964203,2.0637817-0.2888985
					c0.6249237-0.192028,1.3709717-0.4998665,2.2368622-0.9235172l0.7217865,1.6739941
					c-0.7892151,0.4430428-1.5779724,0.7935886-2.366745,1.0534439c-0.7892151,0.2598553-1.6647491,0.3897839-2.6266022,0.3897839
					c-2.3861389,0-4.2046204-0.6734047-5.4549255-2.0206184c-1.2511902-1.3463573-1.8761597-3.1458588-1.8761597-5.3972435
					c0-1.4238348,0.2545776-2.6886997,0.7645416-3.7954512c0.510025-1.1062994,1.2600403-1.9721365,2.2513885-2.5975566
					c0.9909363-0.6249232,2.15979-0.9380393,3.5070038-0.9380393c2.0391083,0,3.5448456,0.7121434,4.5168457,2.1359787
					C214.7419128,10.5344467,215.2281189,12.4004688,215.2281189,14.7095337z M205.1259766,13.1509447h7.8507538
					c-0.3271942-2.8287745-1.5973358-4.2429132-3.809967-4.2429132c-1.1930695,0-2.1311646,0.3800411-2.814209,1.140214
					C205.6694489,10.8083725,205.2603149,11.8424702,205.1259766,13.1509447z"/>
			</g>
			<g>
				<g>
					<path fill="#FFFFFF" d="M64.7257614,32.2581291h-3.3915939v8.918766h-1.1543312v-8.918766h-3.2903061v-0.8944759h7.7063026
						L64.7257614,32.2581291z"/>
					<path fill="#FFFFFF" d="M71.2557373,34.6324043c0.3606949,0.447464,0.5412674,1.0459595,0.5412674,1.7964363v4.7335358
						h-1.1402588v-4.5745659c0-0.5196648-0.0964203-0.9235191-0.2884521-1.2124634
						c-0.1928864-0.2884445-0.5148392-0.4328957-0.9671249-0.4328957c-0.3461761,0-0.7385712,0.1206398-1.1759338,0.3606949
						c-0.4381714,0.2409134-0.8252945,0.5438843-1.1617661,0.9094467v4.9643021h-1.140213V31.1324348l1.140213-0.1439972v4.0839424
						c0.3364716-0.3268242,0.7381134-0.5937157,1.2049255-0.8006706c0.4664078-0.2070007,0.9112549-0.3105011,1.3348999-0.3105011
						C70.3440781,33.9612083,70.8950424,34.1849403,71.2557373,34.6324043z"/>
					<path fill="#FFFFFF" d="M74.1201401,32.7778358c-0.221077,0-0.4038544-0.0722466-0.5483093-0.2162437
						c-0.1444473-0.1444473-0.2162399-0.3272324-0.2162399-0.5487518c0-0.221117,0.0717926-0.4060631,0.2162399-0.5553837
						c0.144455-0.1492748,0.3272324-0.223732,0.5483093-0.223732c0.2118683,0,0.3946075,0.0770741,0.5487518,0.2308121
						c0.1536942,0.1541462,0.2307663,0.3373337,0.2307663,0.5483036c0,0.2118263-0.0770721,0.3923988-0.2307663,0.5412674
						C74.5147476,32.7038307,74.3320084,32.7778358,74.1201401,32.7778358z M73.557312,41.1768951V34.177906h1.1547394v6.9989891
						H73.557312z"/>
					<path fill="#FFFFFF" d="M77.655777,41.1768951h-1.140213V34.177906h0.8517227l0.1876068,0.9957657
						c0.3364792-0.3461723,0.750473-0.6350708,1.2410965-0.866291c0.4906235-0.2308083,0.9570236-0.3461723,1.3996201-0.3461723
						c0.7407761,0,1.2917404,0.223732,1.6524353,0.671196s0.5412674,1.0459595,0.5412674,1.7964363v4.7335358H81.249054v-4.5745659
						c0-0.5196648-0.0959702-0.9235191-0.2884445-1.2124634c-0.192482-0.2884445-0.5148392-0.4328957-0.9671326-0.4328957
						c-0.3461685,0-0.7381134,0.1206398-1.1759262,0.3606949c-0.437767,0.2409134-0.8252945,0.5438843-1.1617737,0.9094467
						V41.1768951z"/>
					<path fill="#FFFFFF" d="M84.294075,41.1768951V31.1324348l1.140213-0.1439972v6.190834l3.1749496-3.1890182l0.692749,0.721386
						l-2.1359787,2.1215019l2.8860016,4.3437538h-1.3419342l-2.3090668-3.5933189l-0.9667206,0.9667206v2.6265984H84.294075z"/>
					<path fill="#FFFFFF" d="M93.6598511,35.1591034l-0.0145187-0.8658371h1.0679703v-1.0970535
						c0-0.6540146,0.175293-1.1758881,0.526741-1.56567c0.3509979-0.3897362,0.8297119-0.584425,1.4361954-0.584425
						c0.1919785,0,0.3844604,0.0242176,0.5769348,0.0722466c0.1924362,0.0479851,0.3509979,0.105711,0.4765091,0.1730862
						l-0.2598572,0.9235191c-0.0770721-0.0382881-0.17836-0.0722046-0.303009-0.1008415
						c-0.125061-0.0290871-0.2360458-0.0436096-0.3320618-0.0436096c-0.6544647,0-0.9812393,0.3994331-0.9812393,1.1979408v1.024807
						h1.284256l0.3752136,0.8658371h-1.6594696v6.0177917h-1.140213v-6.0177917H93.6598511z"/>
					<path fill="#FFFFFF" d="M104.5771866,39.5967064c-0.2836227,0.5531273-0.6901321,0.9860687-1.2190475,1.2987785
						c-0.5294037,0.312664-1.1450806,0.4690208-1.8475266,0.4690208c-0.6734085,0-1.2604446-0.1563568-1.7603149-0.4690208
						c-0.5007706-0.3127098-0.8830185-0.7504768-1.1477432-1.3133011c-0.264679-0.56287-0.3967743-1.2049751-0.3967743-1.9263611
						c0.0096512-0.7121429,0.1514893-1.3441467,0.4258652-1.897728c0.2743759-0.5531731,0.6711884-0.9861107,1.1904068-1.2992287
						c0.5197067-0.3122597,1.1256866-0.4686127,1.8184891-0.4686127c1.0486145,0,1.8712921,0.3343124,2.4675827,1.0028458
						c0.5967789,0.6689835,0.894928,1.5709457,0.894928,2.705883
						C105.0030518,38.4111252,104.8612595,39.0435333,104.5771866,39.5967064z M103.2136917,39.6398659
						c0.4038544-0.505146,0.6108093-1.1472969,0.6205063-1.9263649c0-0.827549-0.1924362-1.4938698-0.5773468-1.9990158
						c-0.3849564-0.5051422-0.9283905-0.7575111-1.6308823-0.7575111c-0.692749,0-1.2410507,0.2523689-1.6449051,0.7575111
						c-0.4043045,0.505146-0.6113052,1.1472511-0.6205444,1.9267693c0,0.817852,0.1924744,1.4815598,0.5773849,1.9915733
						c0.3844604,0.5099716,0.9279404,0.7649536,1.6303864,0.7649536
						C102.2610397,40.3977814,102.8093872,40.1450081,103.2136917,39.6398659z"/>
					<path fill="#FFFFFF" d="M107.5142899,41.1768951h-1.140213V34.177906h0.6782227l0.361145,1.1252403
						c0.3175354-0.2686501,0.6971283-0.5240822,1.1397629-0.7645454c0.4425964-0.2404633,0.8323746-0.3606949,1.1693039-0.3606949
						l0.2739258,0.9089966c-0.3849106,0-0.8129807,0.1277161-1.284256,0.3822517
						c-0.4716797,0.2550278-0.8711166,0.5509605-1.1978912,0.8874359V41.1768951z"/>
					<path fill="#FFFFFF" d="M116.5048065,41.1768951l-1.587677-5.3249969l-1.4863815,5.3249969h-1.1111298l-2.034729-6.7827911
						l1.0389175-0.4328957l1.5586319,5.5848541l1.4718704-5.3681564h1.1547318l1.5586319,5.3681564l1.4718246-5.3681564h1.1543274
						l-2.063324,6.9989891H116.5048065z"/>
					<path fill="#FFFFFF" d="M121.3392258,35.4621162l-0.3320999-0.8658371
						c0.2501602-0.1730843,0.6183395-0.3175354,1.1041336-0.4329414c0.4857483-0.1153603,0.8873978-0.1730843,1.2049332-0.1730843
						c0.5289536,0,1.0006332,0.1008835,1.4141846,0.3030128c0.4135437,0.201725,0.7363586,0.4809265,0.9671249,0.8367958
						c0.2307663,0.3562737,0.3461685,0.760128,0.3461685,1.2124596v4.8343735h-0.8513107l-0.1444473-0.7073174
						c-0.2598572,0.2409134-0.582222,0.4501228-0.9667282,0.6280365c-0.3849106,0.1779099-0.7601242,0.2668915-1.1256866,0.2668915
						c-0.7795258,0-1.373642-0.2021294-1.7823257-0.6059837c-0.4091263-0.4043045-0.6135101-0.9283905-0.6135101-1.5731544
						c0-0.6734047,0.2312164-1.1979408,0.6927948-1.5731544c0.4619827-0.3752174,1.0728378-0.56287,1.8329697-0.56287h1.8039169
						v-0.389286c0-0.5197105-0.1228485-0.9283867-0.3681793-1.2269821c-0.245285-0.2981873-0.6324081-0.4470558-1.1618195-0.4470558
						c-0.4134979,0-0.7671585,0.0409927-1.0604782,0.1224403C122.0050964,35.190403,121.6853561,35.3084221,121.3392258,35.4621162z
						 M121.6131516,39.1853676c0,0.3368797,0.1105347,0.6301994,0.3320541,0.8803596
						c0.221077,0.2501564,0.5483017,0.3752594,0.9812469,0.3752594c0.3752136,0,0.733696-0.0960159,1.0755005-0.2889442
						c0.341301-0.192028,0.6421051-0.4421387,0.9019547-0.7500229v-1.587677h-1.8475266
						c-0.4523315,0-0.8059464,0.1330376-1.060524,0.3968163C121.7408676,38.4758377,121.6131516,38.8008614,121.6131516,39.1853676z
						"/>
					<path fill="#FFFFFF" d="M128.9296722,41.1768951h-1.1402054V34.177906h0.6782303l0.361145,1.1252403
						c0.3175354-0.2686501,0.6971741-0.5240822,1.1397552-0.7645454c0.4426422-0.2404633,0.8323822-0.3606949,1.1693115-0.3606949
						l0.2739258,0.9089966c-0.3849182,0-0.8129883,0.1277161-1.2842255,0.3822517
						c-0.4716797,0.2550278-0.8711548,0.5509605-1.197937,0.8874359V41.1768951z"/>
					<path fill="#FFFFFF" d="M138.1655273,31.0029583v10.1739368h-0.692749l-0.2166901-0.5337791
						c-0.2884521,0.2307663-0.6011658,0.40868-0.9380951,0.5337791c-0.3364716,0.1250572-0.654007,0.1876106-0.9521484,0.1876106
						c-1.0393677,0-1.8545685-0.339138-2.4460297-1.0173683c-0.5919037-0.6782303-0.8878937-1.5801888-0.8878937-2.705883
						c0-0.7121429,0.1374207-1.3445511,0.4113464-1.8977242c0.2743683-0.5531273,0.6641541-0.9834099,1.1688538-1.2912483
						c0.5051422-0.3082886,1.0992584-0.4620285,1.7823639-0.4620285c0.2501526,0,0.5170441,0.048027,0.8010712,0.144043
						c0.2836304,0.0964203,0.5553894,0.2263451,0.8152313,0.3897362v-3.3915977L138.1655273,31.0029583z M136.267807,40.2317772
						c0.2642212-0.1105347,0.5121765-0.281414,0.742981-0.5126305v-4.1416245
						c-0.4615784-0.4135475-1.0098724-0.6205482-1.6449432-0.6205482c-0.692749,0-1.2269897,0.2479477-1.6017914,0.7433968
						c-0.3752136,0.495491-0.5681,1.1380501-0.5773468,1.9263611c0,0.8372459,0.1849518,1.507988,0.5553436,2.013134
						c0.3703918,0.5051422,0.9068298,0.7579155,1.6092682,0.7579155
						C135.6974487,40.3977814,136.0031281,40.3423119,136.267807,40.2317772z"/>
				</g>
			</g>
		</g>
	</g>
</g>
</svg>
