<?xml version="1.0" encoding="utf-8"?>
<!-- Generator: Adobe Illustrator 16.0.0, SVG Export Plug-In . SVG Version: 6.00 Build 0)  -->
<!DOCTYPE svg PUBLIC "-//W3C//DTD SVG 1.1//EN" "http://www.w3.org/Graphics/SVG/1.1/DTD/svg11.dtd" [
	<!ENTITY ns_flows "http://ns.adobe.com/Flows/1.0/">
	<!ENTITY ns_extend "http://ns.adobe.com/Extensibility/1.0/">
	<!ENTITY ns_ai "http://ns.adobe.com/AdobeIllustrator/10.0/">
	<!ENTITY ns_graphs "http://ns.adobe.com/Graphs/1.0/">
]>
<svg version="1.1" id="Layer_1" xmlns:x="&ns_extend;" xmlns:i="&ns_ai;" xmlns:graph="&ns_graphs;"
	 xmlns="http://www.w3.org/2000/svg" xmlns:xlink="http://www.w3.org/1999/xlink" xmlns:a="http://ns.adobe.com/AdobeSVGViewerExtensions/3.0/"
	 x="0px" y="0px" width="218px" height="48px" viewBox="0 0 218 48" enable-background="new 0 0 218 48" xml:space="preserve">
<g>
	<g>
		<path fill="#424242" d="M56.800293,21.0478516V1.421875h10.7080078l0.2597656,1.7021484h-8.6879883v7.0429688h6.7827148
			l0.2597656,1.7026367h-7.0424805v7.3598633h9.2651367l0.2885742,1.8183594H56.800293z"/>
		<path fill="#424242" d="M71.8950195,21.0478516V1.421875h10.7084961l0.2597656,1.7021484H74.175293v7.0429688h6.7827148
			l0.2597656,1.7026367H74.175293v7.3598633h9.2646484l0.2890625,1.8183594H71.8950195z"/>
		<path fill="#424242" d="M88.9819336,1.421875v12.4106445c0,1.6738281,0.4711914,3.0302734,1.4140625,4.0693359
			c0.9428711,1.0395508,2.1933594,1.559082,3.7524414,1.559082c1.5776367,0,2.828125-0.5195313,3.7514648-1.559082
			c0.9243164-1.0390625,1.3857422-2.3955078,1.3857422-4.0693359V1.421875h2.309082v12.6704102
			c0,1.3852539-0.3032227,2.6362305-0.9091797,3.7519531c-0.6064453,1.1162109-1.472168,1.9868164-2.5976563,2.6123047
			c-1.1254883,0.625-2.4384766,0.9375-3.9394531,0.9375s-2.8144531-0.3168945-3.9404297-0.9521484
			c-1.125-0.6347656-1.9912109-1.5004883-2.597168-2.5976563c-0.605957-1.0966797-0.9091797-2.347168-0.9091797-3.7519531V1.421875
			H88.9819336z"/>
		<path fill="#424242" d="M112.2734375,20.0952148l0.5488281-1.7895508
			c0.6142578,0.3081055,1.3603516,0.5825195,2.2363281,0.8232422c0.875,0.2407227,1.7363281,0.3603516,2.5830078,0.3603516
			c1.5009766,0,2.6601563-0.2929688,3.4775391-0.8803711c0.8183594-0.5864258,1.2275391-1.3510742,1.2275391-2.2944336
			c0-0.6733398-0.1933594-1.2651367-0.5771484-1.7744141c-0.3847656-0.5097656-0.9384766-0.972168-1.6601563-1.3857422
			c-0.7207031-0.4135742-1.7080078-0.8901367-2.9580078-1.4291992c-1.7900391-0.769043-3.1035156-1.605957-3.9394531-2.5107422
			c-0.8378906-0.9042969-1.2568359-2.0107422-1.2568359-3.3193359c0-0.9233398,0.2558594-1.7607422,0.765625-2.5107422
			c0.5097656-0.7504883,1.2412109-1.3417969,2.1933594-1.7749023c0.9521484-0.4335938,2.0537109-0.6499023,3.3056641-0.6499023
			c0.9228516,0,1.8212891,0.1157227,2.6972656,0.3461914c0.8759766,0.2314453,1.6503906,0.5200195,2.3242188,0.8657227
			l-0.7792969,1.7607422c-0.7128906-0.3266602-1.3613281-0.5771484-1.9492188-0.75
			c-0.5859375-0.1733398-1.3037109-0.2602539-2.1494141-0.2602539c-1.2695313,0-2.2851563,0.2602539-3.0449219,0.7797852
			s-1.140625,1.2407227-1.140625,2.1645508c0,0.6923828,0.1875,1.2841797,0.5625,1.7753906
			c0.3759766,0.4902344,0.9101563,0.9375,1.6025391,1.3417969c0.6923828,0.4038086,1.7128906,0.9145508,3.0595703,1.5292969
			c1.2128906,0.559082,2.1884766,1.0976563,2.9287109,1.6162109c0.7412109,0.5200195,1.3037109,1.1118164,1.6894531,1.7753906
			c0.3847656,0.6640625,0.578125,1.4575195,0.578125,2.3813477c0,1.0009766-0.2753906,1.8857422-0.8232422,2.6557617
			c-0.5478516,0.7695313-1.3476563,1.3754883-2.3955078,1.8183594c-1.0488281,0.4418945-2.2851563,0.6635742-3.7089844,0.6635742
			c-0.8466797,0-1.8291016-0.1347656-2.9443359-0.4042969C113.6103516,20.75,112.7929688,20.4418945,112.2734375,20.0952148z"/>
		<path fill="#424242" d="M139.2167969,17.8876953c-0.5683594,1.1069336-1.3818359,1.9726563-2.4394531,2.597168
			c-1.0585938,0.6254883-2.2900391,0.9384766-3.6943359,0.9384766c-1.3466797,0-2.5214844-0.3129883-3.5205078-0.9384766
			c-1.0019531-0.6245117-1.7666016-1.5004883-2.2949219-2.6264648c-0.5302734-1.125-0.7939453-2.409668-0.7939453-3.8530273
			c0.0185547-1.4238281,0.3037109-2.6884766,0.8505859-3.7954102c0.5488281-1.105957,1.3417969-1.972168,2.3818359-2.597168
			c1.0390625-0.6254883,2.2519531-0.9384766,3.6367188-0.9384766c2.0976563,0,3.7421875,0.6689453,4.9355469,2.0058594
			c1.1923828,1.3374023,1.7890625,3.1420898,1.7890625,5.4121094
			C140.0673828,15.5166016,139.7832031,16.78125,139.2167969,17.8876953z M136.4882813,17.9741211
			c0.8085938-1.0097656,1.2226563-2.2944336,1.2421875-3.8535156c0-1.6547852-0.3857422-2.9868164-1.1552734-3.9970703
			s-1.8574219-1.5151367-3.2607422-1.5151367c-1.3857422,0-2.4824219,0.5048828-3.2910156,1.5151367
			c-0.8076172,1.0102539-1.2226563,2.2949219-1.2412109,3.8535156c0,1.6352539,0.3847656,2.9628906,1.1552734,3.9829102
			c0.7695313,1.0195313,1.8564453,1.5292969,3.2617188,1.5292969
			C134.5839844,19.4892578,135.6806641,18.984375,136.4882813,17.9741211z"/>
		<path fill="#424242" d="M141.4824219,9.012207l-0.0292969-1.7319336h2.1357422V5.0869141
			c0-1.3081055,0.3505859-2.3525391,1.0527344-3.1318359c0.703125-0.7792969,1.6601563-1.1689453,2.8720703-1.1689453
			c0.3847656,0,0.7695313,0.0483398,1.1552734,0.1445313c0.3847656,0.0966797,0.7021484,0.2124023,0.9521484,0.3466797
			l-0.5185547,1.8466797c-0.1552734-0.0766602-0.3564453-0.144043-0.6064453-0.2021484
			c-0.2509766-0.0571289-0.4716797-0.0859375-0.6650391-0.0859375c-1.3085938,0-1.9609375,0.7983398-1.9609375,2.3955078v2.0488281
			H148.4375l0.7509766,1.7319336h-3.3183594v12.0356445h-2.28125V9.012207H141.4824219z"/>
		<path fill="#424242" d="M156.9521484,7.2802734l0.7509766,1.7319336h-3.2910156v8.081543
			c0,0.7504883,0.1640625,1.3378906,0.4902344,1.7607422c0.3271484,0.4238281,0.828125,0.6347656,1.5019531,0.6347656
			c0.3642578,0,0.7880859-0.0957031,1.2695313-0.2880859l0.5195313,1.7890625
			c-0.6923828,0.3266602-1.4052734,0.4907227-2.1357422,0.4907227c-1.2119141,0-2.1689453-0.3515625-2.8720703-1.0537109
			c-0.703125-0.7016602-1.0527344-1.7075195-1.0527344-3.0161133V9.012207h-2.0205078l-0.0292969-1.7319336h2.0498047V3.7016602
			l2.2792969-0.6352539v4.2138672H156.9521484z"/>
		<path fill="#424242" d="M171.5859375,21.0478516l-3.1757813-10.6499023L165.4375,21.0478516h-2.2226563l-4.0703125-13.5654297
			l2.0791016-0.8657227l3.1171875,11.1699219l2.9443359-10.7368164h2.3085938l3.1171875,10.7368164l2.9433594-10.7368164h2.3105469
			l-4.1289063,13.9980469H171.5859375z"/>
		<path fill="#424242" d="M181.2539063,9.6186523l-0.6630859-1.7319336
			c0.4990234-0.3466797,1.2363281-0.6347656,2.2070313-0.8657227c0.9716797-0.230957,1.7753906-0.3466797,2.4101563-0.3466797
			c1.0585938,0,2.0019531,0.2021484,2.8291016,0.605957c0.8271484,0.4042969,1.4726563,0.9628906,1.9335938,1.6743164
			c0.4619141,0.7119141,0.6923828,1.5205078,0.6923828,2.4243164v9.6689453h-1.7021484l-0.2890625-1.4140625
			c-0.5195313,0.480957-1.1640625,0.8999023-1.9335938,1.2553711c-0.7695313,0.355957-1.5195313,0.5341797-2.2509766,0.5341797
			c-1.5585938,0-2.7470703-0.4042969-3.5644531-1.2124023c-0.8183594-0.8081055-1.2265625-1.8564453-1.2265625-3.1459961
			c0-1.3461914,0.4609375-2.3955078,1.3847656-3.1459961c0.9238281-0.75,2.1455078-1.1254883,3.6660156-1.1254883h3.6074219
			v-0.7792969c0-1.0390625-0.2451172-1.8569336-0.7363281-2.453125c-0.4902344-0.5966797-1.265625-0.8950195-2.3232422-0.8950195
			c-0.8271484,0-1.5341797,0.081543-2.1210938,0.2451172S181.9472656,9.3105469,181.2539063,9.6186523z M181.8027344,17.0649414
			c0,0.6738281,0.2216797,1.2607422,0.6630859,1.7607422c0.4423828,0.5004883,1.0976563,0.7504883,1.9638672,0.7504883
			c0.75,0,1.4667969-0.1923828,2.1494141-0.5771484c0.6835938-0.3852539,1.2851563-0.8852539,1.8046875-1.5014648v-3.1748047
			h-3.6943359c-0.9052734,0-1.6123047,0.2646484-2.1210938,0.7939453
			C182.0566406,15.6464844,181.8027344,16.2954102,181.8027344,17.0649414z"/>
		<path fill="#424242" d="M196.4355469,21.0478516H194.15625V7.0498047h1.3554688l0.7216797,2.2509766
			c0.6357422-0.5385742,1.3955078-1.0483398,2.28125-1.5297852c0.8837891-0.4804688,1.6640625-0.7211914,2.3378906-0.7211914
			l0.5478516,1.8183594c-0.7695313,0-1.6259766,0.2548828-2.5683594,0.7651367
			c-0.9433594,0.5097656-1.7421875,1.1015625-2.3964844,1.7749023V21.0478516z"/>
		<path fill="#424242" d="M215.1396484,14.409668h-10.1601563c0.0566406,1.578125,0.4853516,2.8242188,1.2841797,3.737793
			c0.7978516,0.9140625,2.0253906,1.3710938,3.6796875,1.3710938c0.75,0,1.4384766-0.0966797,2.0634766-0.2890625
			c0.625-0.1918945,1.3710938-0.4995117,2.2363281-0.9238281l0.7226563,1.6743164
			c-0.7900391,0.4433594-1.578125,0.7939453-2.3662109,1.0532227c-0.7900391,0.2597656-1.6650391,0.3901367-2.6269531,0.3901367
			c-2.3867188,0-4.2050781-0.6733398-5.4560547-2.0205078c-1.2509766-1.3461914-1.875-3.1459961-1.875-5.3974609
			c0-1.4238281,0.2548828-2.6884766,0.7646484-3.7954102c0.5097656-1.105957,1.2597656-1.972168,2.2509766-2.597168
			c0.9912109-0.6254883,2.1601563-0.9384766,3.5078125-0.9384766c2.0380859,0,3.5439453,0.7124023,4.515625,2.1362305
			C214.6523438,10.2348633,215.1396484,12.1005859,215.1396484,14.409668z M205.0361328,12.8510742h7.8515625
			c-0.328125-2.8286133-1.5976563-4.2426758-3.8105469-4.2426758c-1.1923828,0-2.1308594,0.3798828-2.8134766,1.1396484
			C205.5800781,10.5087891,205.1708984,11.5429688,205.0361328,12.8510742z"/>
	</g>
	<g>
		<path fill="#1875D1" d="M49.2421875,21.5981445c0,0.4980469-0.4038086,0.9018555-0.9018555,0.9018555H28.144043
			c-0.4980469,0-0.9018555-0.4038086-0.9018555-0.9018555V1.4018555C27.2421875,0.9038086,27.6459961,0.5,28.144043,0.5H48.340332
			c0.4980469,0,0.9018555,0.4038086,0.9018555,0.9018555V21.5981445z"/>
	</g>
	<g>
		<path fill="#1875D1" d="M24.2421875,21.5981445c0,0.4980469-0.4038086,0.9018555-0.9018555,0.9018555H3.144043
			c-0.4980469,0-0.9018555-0.4038086-0.9018555-0.9018555V1.4018555C2.2421875,0.9038086,2.6459961,0.5,3.144043,0.5H23.340332
			c0.4980469,0,0.9018555,0.4038086,0.9018555,0.9018555V21.5981445z"/>
	</g>
	<g>
		<path fill="#1875D1" d="M49.2421875,46.5976563c0,0.4980469-0.4038086,0.9023438-0.9018555,0.9023438H28.144043
			c-0.4980469,0-0.9018555-0.4042969-0.9018555-0.9023438V26.4023438c0-0.4980469,0.4038086-0.9023438,0.9018555-0.9023438
			H48.340332c0.4980469,0,0.9018555,0.4042969,0.9018555,0.9023438V46.5976563z"/>
	</g>
	<g>
		<path fill="#D22E2E" d="M23.6918945,35.2392578c0.3505859,0.3505859,0.3505859,0.9248047,0,1.2753906L14.144043,46.0625
			c-0.3505859,0.3505859-0.9248047,0.3505859-1.2753906,0l-9.5483398-9.5478516
			c-0.3505859-0.3505859-0.3505859-0.9248047,0-1.2753906l9.5478516-9.5478516c0.3505859-0.3505859,0.9248047-0.3505859,1.2753906,0
			L23.6918945,35.2392578z"/>
	</g>
	<g>
		<g>
			<path fill="#424242" d="M64.6362305,31.9580078h-3.3916016v8.9189453H60.090332v-8.9189453H56.800293v-0.8945313h7.7060547
				L64.6362305,31.9580078z"/>
			<path fill="#424242" d="M71.1665039,34.3330078c0.3608398,0.4472656,0.5415039,1.0458984,0.5415039,1.7958984v4.7333984
				h-1.140625v-4.5742188c0-0.5195313-0.0961914-0.9228516-0.2885742-1.2119141
				c-0.1928711-0.2890625-0.5146484-0.4335938-0.9667969-0.4335938c-0.3461914,0-0.7387695,0.1201172-1.1757813,0.3613281
				c-0.4384766,0.2402344-0.8256836,0.5439453-1.1621094,0.9082031v4.9648438h-1.1401367V30.8320313l1.1401367-0.1435547v4.0839844
				c0.3364258-0.3261719,0.737793-0.59375,1.2050781-0.7998047c0.4663086-0.2080078,0.9111328-0.3105469,1.3349609-0.3105469
				C70.2548828,33.6621094,70.8056641,33.8857422,71.1665039,34.3330078z"/>
			<path fill="#424242" d="M74.0307617,32.4775391c-0.2207031,0-0.4038086-0.0722656-0.5483398-0.2158203
				c-0.144043-0.1445313-0.2163086-0.3271484-0.2163086-0.5488281c0-0.2207031,0.0722656-0.40625,0.2163086-0.5556641
				c0.1445313-0.1484375,0.3276367-0.2236328,0.5483398-0.2236328c0.2119141,0,0.3950195,0.078125,0.5488281,0.2314453
				c0.1533203,0.1542969,0.2304688,0.3369141,0.2304688,0.5478516c0,0.2119141-0.0771484,0.3925781-0.2304688,0.5410156
				C74.4257813,32.4042969,74.2426758,32.4775391,74.0307617,32.4775391z M73.4677734,40.8769531v-6.9990234h1.1547852v6.9990234
				H73.4677734z"/>
			<path fill="#424242" d="M77.5664063,40.8769531h-1.1401367v-6.9990234h0.8520508l0.1870117,0.9960938
				c0.3369141-0.3466797,0.7504883-0.6347656,1.2412109-0.8662109s0.9570313-0.3457031,1.3999023-0.3457031
				c0.7407227,0,1.2915039,0.2236328,1.6523438,0.6708984s0.5415039,1.0458984,0.5415039,1.7958984v4.7333984h-1.140625v-4.5742188
				c0-0.5195313-0.0957031-0.9228516-0.2880859-1.2119141c-0.1928711-0.2890625-0.5151367-0.4335938-0.9672852-0.4335938
				c-0.3461914,0-0.7382813,0.1201172-1.1757813,0.3613281c-0.4379883,0.2402344-0.8256836,0.5439453-1.1621094,0.9082031
				V40.8769531z"/>
			<path fill="#424242" d="M84.2045898,40.8769531V30.8320313l1.1401367-0.1435547v6.1904297l3.175293-3.1884766
				l0.6923828,0.7216797l-2.1357422,2.1210938l2.8857422,4.34375h-1.3413086l-2.3095703-3.59375L85.3447266,38.25v2.6269531
				H84.2045898z"/>
			<path fill="#424242" d="M93.5703125,34.859375l-0.0146484-0.8652344h1.0683594v-1.0976563
				c0-0.6533203,0.175293-1.1757813,0.5263672-1.5664063c0.3510742-0.3886719,0.8300781-0.5839844,1.4365234-0.5839844
				c0.1918945,0,0.3842773,0.0244141,0.5766602,0.0722656c0.1928711,0.0478516,0.3515625,0.1054688,0.4770508,0.1728516
				l-0.2597656,0.9238281c-0.0771484-0.0380859-0.1787109-0.0722656-0.3032227-0.1005859
				c-0.125-0.0292969-0.2358398-0.0429688-0.3325195-0.0429688c-0.6538086,0-0.980957,0.3984375-0.980957,1.1972656v1.0253906
				h1.2841797l0.3754883,0.8652344h-1.659668v6.0175781h-1.1401367V34.859375H93.5703125z"/>
			<path fill="#424242" d="M104.487793,39.296875c-0.2836914,0.5527344-0.6904297,0.9863281-1.2192383,1.2988281
				s-1.1450195,0.46875-1.847168,0.46875c-0.6733398,0-1.2607422-0.15625-1.7602539-0.46875
				c-0.5009766-0.3125-0.8833008-0.7509766-1.1479492-1.3134766c-0.2646484-0.5634766-0.3969727-1.2050781-0.3969727-1.9257813
				c0.0097656-0.7119141,0.1518555-1.3447266,0.4257813-1.8974609c0.2749023-0.5537109,0.6713867-0.9873047,1.1904297-1.2998047
				c0.5200195-0.3125,1.1259766-0.46875,1.8183594-0.46875c1.0488281,0,1.8720703,0.3339844,2.4682617,1.0029297
				s0.8945313,1.5712891,0.8945313,2.7060547C104.9135742,38.1113281,104.7719727,38.7431641,104.487793,39.296875z
				 M103.1240234,39.3408203c0.4038086-0.5058594,0.6113281-1.1474609,0.6206055-1.9277344
				c0-0.8271484-0.1923828-1.4931641-0.5771484-1.9990234c-0.3847656-0.5048828-0.9282227-0.7568359-1.6308594-0.7568359
				c-0.6928711,0-1.2412109,0.2519531-1.6450195,0.7568359c-0.4042969,0.5058594-0.6108398,1.1474609-0.6206055,1.9277344
				c0,0.8173828,0.1923828,1.4814453,0.5776367,1.9912109c0.3847656,0.5097656,0.9277344,0.7646484,1.6303711,0.7646484
				C102.171875,40.0976563,102.7197266,39.8447266,103.1240234,39.3408203z"/>
			<path fill="#424242" d="M107.4248047,40.8769531h-1.1401367v-6.9990234h0.6782227l0.3608398,1.1259766
				c0.3178711-0.2685547,0.6972656-0.5244141,1.1401367-0.7646484c0.4423828-0.2412109,0.8325195-0.3613281,1.1694336-0.3613281
				l0.2734375,0.9091797c-0.3842773,0-0.8125,0.1279297-1.2836914,0.3818359
				c-0.4716797,0.2558594-0.871582,0.5517578-1.1982422,0.8876953V40.8769531z"/>
			<path fill="#424242" d="M116.4160156,40.8769531l-1.5878906-5.3251953l-1.4863281,5.3251953h-1.1113281l-2.0351563-6.7832031
				l1.0400391-0.4316406l1.5576172,5.5839844l1.4726563-5.3681641h1.1542969l1.5585938,5.3681641l1.4716797-5.3681641h1.1542969
				l-2.0634766,6.9990234H116.4160156z"/>
			<path fill="#424242" d="M121.25,35.1630859l-0.3330078-0.8671875c0.2509766-0.1728516,0.6191406-0.3173828,1.1044922-0.4326172
				c0.4863281-0.1152344,0.8876953-0.1728516,1.2060547-0.1728516c0.5283203,0,1,0.1015625,1.4140625,0.3037109
				c0.4130859,0.2011719,0.7363281,0.4794922,0.9667969,0.8359375s0.3457031,0.7607422,0.3457031,1.2128906v4.8339844h-0.8515625
				l-0.1435547-0.7070313c-0.2607422,0.2412109-0.5830078,0.4501953-0.9667969,0.6279297
				c-0.3847656,0.1777344-0.7607422,0.2666016-1.1259766,0.2666016c-0.7802734,0-1.3740234-0.2021484-1.7822266-0.6054688
				c-0.4091797-0.4042969-0.6142578-0.9287109-0.6142578-1.5732422c0-0.6738281,0.2314453-1.1982422,0.6933594-1.5732422
				s1.0732422-0.5625,1.8330078-0.5625h1.8046875v-0.3896484c0-0.5205078-0.1240234-0.9277344-0.3691406-1.2275391
				c-0.2451172-0.2978516-0.6328125-0.4462891-1.1611328-0.4462891c-0.4140625,0-0.7675781,0.0410156-1.0605469,0.1220703
				C121.9160156,34.890625,121.5957031,35.0087891,121.25,35.1630859z M121.5234375,38.8857422
				c0,0.3369141,0.1113281,0.6298828,0.3330078,0.8808594c0.2207031,0.25,0.5478516,0.375,0.9804688,0.375
				c0.375,0,0.7333984-0.0966797,1.0751953-0.2890625s0.6425781-0.4423828,0.9023438-0.7509766v-1.5869141h-1.8476563
				c-0.4521484,0-0.8056641,0.1328125-1.0605469,0.3964844C121.6513672,38.1757813,121.5234375,38.5009766,121.5234375,38.8857422z"
				/>
			<path fill="#424242" d="M128.8408203,40.8769531h-1.1416016v-6.9990234h0.6787109l0.3613281,1.1259766
				c0.3173828-0.2685547,0.6972656-0.5244141,1.1396484-0.7646484c0.4433594-0.2412109,0.8320313-0.3613281,1.1689453-0.3613281
				l0.2744141,0.9091797c-0.3847656,0-0.8134766,0.1279297-1.2841797,0.3818359
				c-0.4716797,0.2558594-0.8710938,0.5517578-1.1972656,0.8876953V40.8769531z"/>
			<path fill="#424242" d="M138.0761719,30.703125v10.1738281h-0.6933594l-0.2158203-0.5332031
				c-0.2890625,0.2304688-0.6015625,0.4082031-0.9384766,0.5332031c-0.3359375,0.1259766-0.6533203,0.1875-0.9521484,0.1875
				c-1.0400391,0-1.8544922-0.3388672-2.4462891-1.0175781c-0.5917969-0.6777344-0.8867188-1.5791016-0.8867188-2.7050781
				c0-0.7128906,0.1367188-1.3447266,0.4101563-1.8984375c0.2744141-0.5527344,0.6650391-0.9833984,1.1689453-1.2910156
				c0.5058594-0.3085938,1.0996094-0.4619141,1.7832031-0.4619141c0.25,0,0.5166016,0.0478516,0.8007813,0.1445313
				s0.5556641,0.2265625,0.8154297,0.3886719v-3.3916016L138.0761719,30.703125z M136.1787109,39.9316406
				c0.2636719-0.1103516,0.5117188-0.28125,0.7431641-0.5126953v-4.140625
				c-0.4628906-0.4140625-1.0097656-0.6210938-1.6455078-0.6210938c-0.6923828,0-1.2265625,0.2480469-1.6025391,0.7431641
				c-0.375,0.4960938-0.5673828,1.1376953-0.5771484,1.9257813c0,0.8378906,0.1855469,1.5087891,0.5556641,2.0146484
				c0.3710938,0.5039063,0.9072266,0.7568359,1.609375,0.7568359
				C135.6074219,40.0976563,135.9140625,40.0419922,136.1787109,39.9316406z"/>
		</g>
	</g>
</g>
</svg>
