<?xml version="1.0" encoding="utf-8"?>
<!-- Generator: Adobe Illustrator 23.0.3, SVG Export Plug-In . SVG Version: 6.00 Build 0)  -->
<svg version="1.1" xmlns="http://www.w3.org/2000/svg" xmlns:xlink="http://www.w3.org/1999/xlink" x="0px" y="0px"
	 viewBox="0 0 218 48" enable-background="new 0 0 218 48" xml:space="preserve">
<g id="back" display="none">
	<rect x="-0.2577811" display="inline" width="218.5" height="48"/>
</g>
<g id="Layer_1">
	<g>
		<g>
			<path fill="#FFFFFF" d="M56.8002968,21.0478992V1.4219h10.708004l0.2597961,1.7021h-8.6879997v7.0429997h6.7827034
				l0.2597961,1.7026005h-7.0424995v7.3598995h9.2651176l0.2885818,1.8183994H56.8002968z"/>
			<path fill="#FFFFFF" d="M71.8949966,21.0478992V1.4219h10.7085037l0.2597961,1.7021h-8.6879959v7.0429997h6.7826996
				l0.2597961,1.7026005h-7.0424957v7.3598995h9.2646942l0.2890015,1.8183994H71.8949966z"/>
			<path fill="#FFFFFF" d="M88.9818954,1.4219v12.4106007c0,1.6737995,0.471199,3.0303001,1.4141006,4.0693989
				c0.9429016,1.0395012,2.1934052,1.559,3.7525024,1.559c1.5775986,0,2.8281021-0.5194988,3.7513962-1.559
				c0.9243164-1.0390987,1.3858032-2.3955994,1.3858032-4.0693989V1.4219h2.3089981v12.6704006
				c0,1.3851995-0.3031998,2.6362-0.9090958,3.7518997c-0.6065063,1.1161995-1.4722061,1.9869003-2.597702,2.612299
				c-1.1255035,0.625-2.4384995,0.9375-3.9393997,0.9375c-1.5009995,0-2.8144989-0.3168983-3.9404984-0.9520988
				c-1.125-0.6348-1.9912033-1.5004997-2.5970993-2.5977001c-0.6060028-1.0965996-0.9092026-2.3471003-0.9092026-3.7518997V1.4219
				H88.9818954z"/>
			<path fill="#FFFFFF" d="M112.2734985,20.0951996l0.5487976-1.7894993
				c0.6142044,0.3080997,1.3602982,0.5825005,2.2362976,0.8232002c0.875,0.2406998,1.7363052,0.3603992,2.5830002,0.3603992
				c1.5009995,0,2.660202-0.2929993,3.477623-0.8803997c0.8182831-0.586401,1.227478-1.3511009,1.227478-2.2943993
				c0-0.6734009-0.1933975-1.2652006-0.5771942-1.7745008c-0.3847046-0.5096998-0.9384003-0.9721003-1.6601028-1.3857002
				c-0.7207031-0.4136-1.7080002-0.8900995-2.9580002-1.4292002c-1.7901001-0.7689991-3.1035004-1.6059999-3.9394989-2.5106993
				c-0.8378983-0.9043007-1.2568054-2.0108004-1.2568054-3.3194003c0-0.9232998,0.2559052-1.7606997,0.7656021-2.5107
				c0.5098038-0.7505,1.2412033-1.3418,2.1934052-1.7749c0.9521103-0.4336001,2.0536957-0.6499,3.3055954-0.6499
				c0.9228973,0,1.8213043,0.1156999,2.6973038,0.3461999c0.8759995,0.2314,1.6503983,0.5200001,2.3242111,0.8657001
				l-0.7793121,1.7607c-0.7128983-0.3266001-1.3613052-0.5771-1.9492035-0.75c-0.5858994-0.1733-1.3036957-0.2602-2.1493988-0.2602
				c-1.2695007,0-2.285202,0.2602-3.044899,0.7797999c-0.7598038,0.5195-1.1407013,1.2407-1.1407013,2.1645
				c0,0.6924,0.1875153,1.2842002,0.5625153,1.7754002c0.3759995,0.4901996,0.9101868,0.9374995,1.6025848,1.3418002
				c0.6924133,0.4038,1.7128983,0.9144993,3.0596008,1.5292997c1.2128143,0.5591002,2.1884003,1.0977001,2.9287033,1.6161995
				c0.7411957,0.5200005,1.3036957,1.1118002,1.6893997,1.7754002c0.3847961,0.6641006,0.5780945,1.4575005,0.5780945,2.3813009
				c0,1.0009995-0.2752991,1.8857994-0.8231964,2.6557999c-0.5477982,0.7694988-1.347702,1.3754997-2.3955002,1.8183994
				c-1.0487976,0.4419003-2.285202,0.6634998-3.7089996,0.6634998c-0.8466873,0-1.8291016-0.1346989-2.9442978-0.4043007
				C113.6103973,20.75,112.7929993,20.4419003,112.2734985,20.0951996z"/>
			<path fill="#FFFFFF" d="M139.2167969,17.8876991c-0.5682983,1.1069012-1.3818054,1.9727001-2.4394073,2.5972004
				c-1.0585938,0.6254997-2.2901001,0.9384003-3.694397,0.9384003c-1.3466949,0-2.5214996-0.3129005-3.5204926-0.9384003
				c-1.0019073-0.6245003-1.7666016-1.5004997-2.2949066-2.6264992c-0.5302963-1.125-0.7939987-2.4097004-0.7939987-3.8530006
				c0.0186157-1.4238997,0.3038025-2.6884995,0.8506165-3.7953997c0.5488892-1.1059999,1.3417892-1.9722004,2.3818893-2.5971999
				c1.0390015-0.6255002,2.2518921-0.9384999,3.6367035-0.9384999c2.0975952,0,3.7421875,0.6689997,4.9354858,2.0058994
				c1.1924133,1.3374004,1.7891083,3.1421003,1.7891083,5.4121008
				C140.0673981,15.5165997,139.7832184,16.7812996,139.2167969,17.8876991z M136.4882965,17.9741001
				c0.8085938-1.0097008,1.222702-2.2944002,1.2422028-3.8535004c0-1.6547995-0.3858032-2.9868002-1.1552887-3.9970999
				c-0.769516-1.0101995-1.8574066-1.5150995-3.2607117-1.5150995c-1.3858032,0-2.4824982,0.5049-3.2910004,1.5150995
				c-0.8077087,1.0102997-1.222702,2.2950001-1.2412872,3.8536005c0,1.6351995,0.3847809,2.9627991,1.1552887,3.9828987
				c0.7695007,1.0195007,1.8564911,1.5293007,3.2617188,1.5293007
				C134.5839996,19.4892998,135.6806946,18.9843998,136.4882965,17.9741001z"/>
			<path fill="#FFFFFF" d="M141.4823914,9.0122004l-0.0292969-1.7319002h2.1358032V5.0869002
				c0-1.3081002,0.3506012-2.3525002,1.0527039-3.1318002C145.344696,1.1758,146.3018036,0.7861,147.5137024,0.7861
				c0.3847961,0,0.769516,0.0484,1.1552887,0.1446c0.3847046,0.0966,0.7021027,0.2124,0.9521027,0.3466l-0.5184937,1.8467001
				C148.9472961,3.0474,148.7460938,2.98,148.4960938,2.9219c-0.2509918-0.0572-0.4716949-0.086-0.6649933-0.086
				c-1.308609,0-1.9609985,0.7983999-1.9609985,2.3954999v2.0489001H148.4375l0.7509918,1.7319002h-3.3183899v12.0356989h-2.2812042
				V9.0122004H141.4823914z"/>
			<path fill="#FFFFFF" d="M156.9522095,7.2803001l0.750885,1.7319002h-3.2910004v8.0815992
				c0,0.7504005,0.1641235,1.337801,0.4902954,1.7607002c0.3271027,0.4237995,0.8281097,0.6348,1.5019073,0.6348
				c0.3643036,0,0.7881012-0.0956993,1.2695007-0.2880993l0.5195923,1.7889996
				c-0.6923981,0.3267002-1.4052887,0.4908009-2.135788,0.4908009c-1.2118988,0-2.1688995-0.3516006-2.8720093-1.0538006
				c-0.7032013-0.701601-1.0527954-1.7075005-1.0527954-3.0160999v-8.3989h-2.0205078l-0.0292969-1.7319002h2.0498047V3.7017
				l2.2792969-0.6352999v4.2139001H156.9522095z"/>
			<path fill="#FFFFFF" d="M171.5859985,21.0478992l-3.1757813-10.6499996L165.4375,21.0478992h-2.2226105l-4.0703888-13.5654993
				l2.0791016-0.8656998l3.1171875,11.1698999l2.9444275-10.7368002h2.3085785l3.1172028,10.7368002l2.9432983-10.7368002h2.3105927
				l-4.128891,13.9980993H171.5859985z"/>
			<path fill="#FFFFFF" d="M181.253891,9.6187l-0.6631012-1.7319999c0.4990997-0.3467002,1.2364197-0.6347003,2.2071075-0.8657002
				c0.9716034-0.2309999,1.7753906-0.3466997,2.4100952-0.3466997c1.058609,0,2.0019989,0.2021999,2.8291016,0.6059999
				c0.8271942,0.4042997,1.472702,0.9629002,1.9335938,1.6743002c0.4619141,0.7118998,0.6924133,1.5204992,0.6924133,2.4242992
				v9.6689997h-1.7021027l-0.2891083-1.4140987c-0.5195007,0.4808998-1.164093,0.8999004-1.9335938,1.2553997
				c-0.7695007,0.3558998-1.5195007,0.5340996-2.2510071,0.5340996c-1.5585938,0-2.7470703-0.4043007-3.5643921-1.2124004
				c-0.8184052-0.8080997-1.2266083-1.8563995-1.2266083-3.1459999c0-1.3460999,0.4609222-2.3954992,1.3848114-3.1459999
				c0.9237976-0.75,2.1454926-1.1253996,3.6660004-1.1253996h3.6073914v-0.7792997
				c0-1.0391006-0.2451019-1.8570004-0.7362823-2.4532003c-0.4903107-0.5965996-1.2656097-0.8949995-2.3233185-0.8949995
				c-0.8271027,0-1.5341034,0.0815992-2.1210938,0.2451C182.5868988,9.0747004,181.9472961,9.3105001,181.253891,9.6187z
				 M181.8026886,17.0648994c0,0.6739006,0.2217102,1.2608013,0.6631012,1.7608013
				c0.4424286,0.5004997,1.097702,0.7504997,1.963913,0.7504997c0.75,0,1.4667969-0.1924,2.1493988-0.5771999
				c0.6835938-0.3852005,1.2851868-0.8852005,1.8046875-1.5014v-3.1748009h-3.6942902
				c-0.9052887,0-1.6122894,0.2646008-2.121109,0.7939005C182.0567017,15.6464996,181.8026886,16.2954006,181.8026886,17.0648994z"
				/>
			<path fill="#FFFFFF" d="M196.4355927,21.0478992h-2.2792969V7.0497999h1.3553925l0.7217102,2.2510004
				c0.6358185-0.5386,1.3954926-1.0483999,2.2812958-1.5298004c0.8838043-0.4804997,1.6640015-0.7212,2.3379059-0.7212
				l0.5477905,1.8184004c-0.7695007,0-1.6259918,0.2547998-2.5683899,0.7650995
				c-0.9432983,0.5098-1.7421112,1.1016006-2.3964081,1.7749004V21.0478992z"/>
			<path fill="#FFFFFF" d="M215.1396942,14.4097004h-10.160202c0.0566101,1.5780993,0.4853973,2.8241997,1.2842102,3.7377987
				c0.7977905,0.9140015,2.0253906,1.3711014,3.6796875,1.3711014c0.75,0,1.4384003-0.0967007,2.0634003-0.2891006
				c0.625-0.1919003,1.371109-0.4995003,2.2364197-0.9237995l0.72258,1.6742992
				c-0.7899933,0.4433002-1.5780945,0.7938995-2.3661957,1.0531998c-0.7899933,0.2598-1.6649933,0.3901005-2.6268921,0.3901005
				c-2.3867035,0-4.2051086-0.6732998-5.4561005-2.0205002c-1.2510071-1.346199-1.875-3.1459999-1.875-5.3973999
				c0-1.4238997,0.2548981-2.6884995,0.7646942-3.7953997c0.5097046-1.1059999,1.2597046-1.9722004,2.2509155-2.5971999
				c0.9912872-0.6255002,2.1601868-0.9384999,3.5078888-0.9384999c2.0379944,0,3.5438995,0.7124,4.5155945,2.1362
				C214.6523895,10.2349005,215.1396942,12.1006002,215.1396942,14.4097004z M205.0361023,12.8511h7.851593
				c-0.3280945-2.8285999-1.5975952-4.2426996-3.8104858-4.2426996c-1.1924133,0-2.1309204,0.3799-2.8135071,1.1395998
				C205.5800934,10.5087996,205.1708984,11.5430002,205.0361023,12.8511z"/>
		</g>
		<g>
			<path fill="none" stroke="#FFFFFF" stroke-miterlimit="10" d="M48.6825981,21.4452
				c0,0.4960995-0.405899,0.9020004-0.9020004,0.9020004H27.9372139c-0.4961014,0-0.9020004-0.405901-0.9020004-0.9020004V1.6022
				c0-0.4961001,0.405899-0.902,0.9020004-0.902h19.8433838c0.4961014,0,0.9020004,0.4058999,0.9020004,0.902V21.4452z"/>
		</g>
		<g>
			<path fill="none" stroke="#FFFFFF" stroke-miterlimit="10" d="M24.3295994,21.4452
				c0,0.4960995-0.405899,0.9020004-0.9020004,0.9020004H3.5846c-0.4960999,0-0.902-0.405901-0.902-0.9020004V1.6022
				c0-0.4961001,0.4059-0.902,0.902-0.902H23.427599c0.4961014,0,0.9020004,0.4058999,0.9020004,0.902V21.4452z"/>
		</g>
		<g>
			<path fill="none" stroke="#FFFFFF" stroke-miterlimit="10" d="M48.6825981,45.7981987
				c0,0.4961014-0.405899,0.9020004-0.9020004,0.9020004H27.9372139c-0.4961014,0-0.9020004-0.405899-0.9020004-0.9020004
				V25.9556999c0-0.4960995,0.405899-0.9020004,0.9020004-0.9020004h19.8433838c0.4961014,0,0.9020004,0.405901,0.9020004,0.9020004
				V45.7981987z"/>
		</g>
		<g>
			<path fill="#D22E2E" d="M23.6917782,35.2392006c0.3508015,0.3507919,0.3508072,0.9248123,0.0000114,1.2756081
				l-9.5475798,9.5475807c-0.3507957,0.3507957-0.9248323,0.3508034-1.2756386,0.0000191l-9.5481434-9.5476151
				c-0.3508053-0.3507881-0.3508134-0.9248085-0.0000176-1.2756042l9.5476799-9.547678
				c0.3507957-0.3507957,0.9248295-0.3508015,1.2756319-0.0000134L23.6917782,35.2392006z"/>
		</g>
		<g>
			<g>
				<path fill="#FFFFFF" d="M64.6362152,31.9580002h-3.3916168v8.9189987h-1.1543007v-8.9189987h-3.2900009v-0.8945007h7.7061043
					L64.6362152,31.9580002z"/>
				<path fill="#FFFFFF" d="M71.1664963,34.3330002c0.3609009,0.4473,0.5415039,1.0458984,0.5415039,1.7958984v4.7334023h-1.1406021
					v-4.5741997c0-0.5195007-0.0961838-0.9229012-0.2885971-1.2119026
					c-0.1928024-0.2890968-0.5145874-0.4335976-0.9668045-0.4335976c-0.346199,0-0.7387009,0.1200981-1.1757813,0.3612976
					c-0.4384155,0.2402-0.8256149,0.5440025-1.162117,0.9082031v4.9648972h-1.1400986V30.8320007l1.1400986-0.1435013v4.0839996
					c0.3365021-0.3261986,0.7378006-0.5937996,1.2051163-0.7998009c0.4662857-0.2080994,0.911087-0.3105965,1.3349991-0.3105965
					C70.2548981,33.6621017,70.8056946,33.8857002,71.1664963,34.3330002z"/>
				<path fill="#FFFFFF" d="M74.0307999,32.4775009c-0.2207031,0-0.403801-0.0722008-0.5484009-0.2158012
					c-0.1439972-0.1445007-0.216301-0.3270988-0.216301-0.5487995c0-0.2206993,0.0723038-0.4062996,0.216301-0.5557003
					c0.1445999-0.1483994,0.3276978-0.2236004,0.5484009-0.2236004c0.2118988,0,0.3949966,0.0781002,0.5487976,0.2314014
					c0.1532974,0.1542988,0.2304993,0.3369999,0.2304993,0.5478992c0,0.2119007-0.0772018,0.3925991-0.2304993,0.5409985
					C74.4257965,32.4043007,74.2426987,32.4775009,74.0307999,32.4775009z M73.4677963,40.8769989v-6.9990997h1.1548004v6.9990997
					H73.4677963z"/>
				<path fill="#FFFFFF" d="M77.5663986,40.8769989H76.4263v-6.9990997h0.8519974l0.1870041,0.9961014
					c0.336998-0.3466988,0.7504959-0.6347008,1.2412949-0.8661995c0.4906998-0.2313995,0.9570007-0.3456993,1.3999023-0.3456993
					c0.740715,0,1.2914963,0.2235985,1.652298,0.6708984s0.5415039,1.0458984,0.5415039,1.7958984v4.7334023h-1.1406021v-4.5741997
					c0-0.5195007-0.0957031-0.9229012-0.2881012-1.2119026c-0.1929016-0.2890968-0.5150986-0.4335976-0.9673004-0.4335976
					c-0.346199,0-0.7382965,0.1200981-1.1757965,0.3612976c-0.4380035,0.2402-0.8256989,0.5440025-1.1621017,0.9082031V40.8769989z"
					/>
				<path fill="#FFFFFF" d="M84.2045975,40.8769989V30.8320007l1.1400986-0.1435013v6.1903992l3.1753006-3.1884995
					l0.6923981,0.7217026l-2.1356964,2.1210976l2.8856964,4.3437996h-1.3412933l-2.3096008-3.5937996L85.344696,38.25v2.6269989
					H84.2045975z"/>
				<path fill="#FFFFFF" d="M93.5702972,34.8594017l-0.0146027-0.865303h1.068306v-1.097599
					c0-0.6533012,0.1753006-1.1758003,0.5263977-1.5664005c0.3510971-0.3886986,0.830101-0.5839996,1.4365005-0.5839996
					c0.1919022,0,0.3843155,0.0244007,0.5766983,0.0723c0.1929016,0.0478001,0.3515015,0.1054001,0.4769974,0.1728001
					l-0.259697,0.9238014c-0.0772018-0.0380001-0.1786804-0.0722008-0.303299-0.1005001
					c-0.125-0.0293007-0.2358017-0.0430012-0.3325043-0.0430012c-0.6537933,0-0.9808807,0.3983994-0.9808807,1.1973v1.0252991
					h1.2841873l0.3753967,0.865303h-1.659584v6.0175972h-1.140213v-6.0175972H93.5702972z"/>
				<path fill="#FFFFFF" d="M104.4878006,39.2969017c-0.2837067,0.5527-0.6904068,0.9862976-1.2192001,1.2987976
					c-0.528801,0.3125-1.1451035,0.4687996-1.8472061,0.4687996c-0.6732941,0-1.2606964-0.1562996-1.7602997-0.4687996
					c-0.500885-0.3125-0.8833008-0.7509995-1.1478806-1.3134995c-0.2647171-0.5634003-0.3970032-1.205101-0.3970032-1.9258003
					c0.0097885-0.7118988,0.151886-1.3446999,0.4257889-1.8973999c0.2748947-0.5536995,0.6713943-0.9873009,1.1903992-1.2998009
					c0.5200958-0.3125,1.1259995-0.4687996,1.8183975-0.4687996c1.0487976,0,1.8721008,0.3339996,2.4682999,1.0030022
					c0.5961151,0.6688995,0.8945007,1.5711975,0.8945007,2.7059975
					C104.9135971,38.1113014,104.7719955,38.7431984,104.4878006,39.2969017z M103.1240005,39.3408012
					c0.4037933-0.5058022,0.6113968-1.1473999,0.6205978-1.9277c0-0.8272018-0.1922989-1.4932022-0.5771027-1.9990005
					c-0.3847961-0.5049019-0.9281998-0.7569008-1.6308975-0.7569008c-0.6928024,0-1.2412033,0.2519989-1.6450043,0.7569008
					c-0.4042969,0.5057983-0.6107941,1.1473999-0.6205978,1.9277c0,0.8173981,0.1923981,1.4813995,0.5775986,1.9911995
					c0.3848038,0.5098,0.927803,0.764698,1.6304016,0.764698C102.1718979,40.0976982,102.719696,39.8446999,103.1240005,39.3408012z
					"/>
				<path fill="#FFFFFF" d="M107.4247971,40.8769989h-1.1400986v-6.9990997h0.6781998l0.3608017,1.1259995
					c0.317894-0.2684975,0.6972961-0.5243988,1.1401978-0.7645988c0.4423981-0.2412987,0.8324966-0.3614006,1.1694031-0.3614006
					l0.2734985,0.9092026c-0.3843002,0-0.8125,0.1278992-1.283699,0.3817978
					c-0.4717026,0.2559013-0.8716049,0.5517998-1.1983032,0.8876991V40.8769989z"/>
				<path fill="#FFFFFF" d="M116.4160004,40.8769989l-1.5879059-5.3251991l-1.4862976,5.3251991h-1.1112976l-2.035202-6.7831993
					l1.0401001-0.4316978l1.5576019,5.5839996l1.4725952-5.3682022h1.1543045l1.5586014,5.3682022l1.4717102-5.3682022h1.1542892
					l-2.0634995,6.9990997H116.4160004z"/>
				<path fill="#FFFFFF" d="M121.25,35.1631012l-0.3330002-0.8672028c0.2509995-0.1728973,0.6190948-0.3173981,1.1044998-0.4325981
					c0.4862976-0.1152992,0.8877106-0.1729012,1.2061005-0.1729012c0.5282974,0,1,0.1016006,1.4139938,0.3036995
					c0.4131012,0.2012024,0.7363052,0.4794998,0.9668045,0.8360023c0.2304993,0.3563995,0.3456955,0.7607002,0.3456955,1.2128983
					v4.8339996h-0.8514938l-0.1436005-0.7070999c-0.260704,0.2411995-0.5830002,0.4501991-0.9667892,0.6280022
					c-0.3848114,0.1777-0.7607117,0.2665977-1.1259995,0.2665977c-0.7802124,0-1.3740005-0.202198-1.7822113-0.6054993
					c-0.4092026-0.4043007-0.6143036-0.9286995-0.6143036-1.5732994c0-0.6738014,0.231514-1.1982002,0.6933975-1.5732002
					c0.4619064-0.375,1.073204-0.5625,1.8330002-0.5625h1.8047028v-0.3895988c0-0.5205994-0.1240005-0.927803-0.3691025-1.2276001
					c-0.2451935-0.297802-0.6328964-0.4463005-1.1611938-0.4463005c-0.4140015,0-0.767601,0.0410004-1.0605011,0.1221008
					C121.9160004,34.8905983,121.5956955,35.0088005,121.25,35.1631012z M121.5234985,38.8857002
					c0,0.336998,0.1112976,0.6298981,0.3330002,0.8809013c0.2207184,0.25,0.5477982,0.375,0.9804001,0.375
					c0.375,0,0.7333984-0.0967026,1.0751953-0.2891006c0.3418045-0.1923027,0.642601-0.4423027,0.9024048-0.7509003v-1.5870018
					h-1.847702c-0.4521027,0-0.8057022,0.1329002-1.0605011,0.3964996
					C121.6513977,38.1758003,121.5234985,38.5009995,121.5234985,38.8857002z"/>
				<path fill="#FFFFFF" d="M128.8407898,40.8769989h-1.1415787v-6.9990997h0.678688l0.3614044,1.1259995
					c0.3173981-0.2684975,0.6971893-0.5243988,1.1395874-0.7645988c0.4434052-0.2412987,0.8321075-0.3614006,1.1690063-0.3614006
					l0.2743988,0.9092026c-0.3847961,0-0.8134918,0.1278992-1.2841949,0.3817978
					c-0.4717102,0.2559013-0.871109,0.5517998-1.1973114,0.8876991V40.8769989z"/>
				<path fill="#FFFFFF" d="M138.0762177,30.7031002v10.1738987h-0.6934204l-0.2158051-0.5331993
					c-0.289093,0.2304001-0.601593,0.4081993-0.9384918,0.5331993c-0.335907,0.1259003-0.6532898,0.1875-0.9521027,0.1875
					c-1.0401001,0-1.8545074-0.3388977-2.4463043-1.0175972c-0.5917969-0.677803-0.8867035-1.5791016-0.8867035-2.705101
					c0-0.7129021,0.1367035-1.3446999,0.4101105-1.8983994c0.2743988-0.552803,0.6651001-0.9834023,1.1689911-1.2910995
					c0.5057983-0.3085022,1.0996094-0.4619026,1.7832031-0.4619026c0.25,0,0.5166016,0.0479012,0.8007965,0.1445999
					c0.2841034,0.0965996,0.555603,0.2265015,0.8153992,0.3885994v-3.3915977L138.0762177,30.7031002z M136.1786957,39.9315987
					c0.2637024-0.1102982,0.5117035-0.2812004,0.7431946-0.5126991v-4.1405983
					c-0.4628906-0.4140015-1.0097961-0.6211014-1.6454926-0.6211014c-0.6923981,0-1.2266083,0.2481003-1.6026001,0.7431984
					c-0.375,0.4961014-0.5673065,1.1377029-0.5771027,1.9258003c0,0.8379021,0.1855164,1.5088005,0.5556946,2.0146027
					c0.371109,0.5038986,0.9072113,0.756897,1.609314,0.756897
					C135.6073914,40.0976982,135.914093,40.0419998,136.1786957,39.9315987z"/>
			</g>
		</g>
	</g>
</g>
</svg>
